<svg width="160" height="130" viewBox="0 0 160 130" fill="none" xmlns="http://www.w3.org/2000/svg">
<path d="M11 129.744V106.256H14.5256C16.6366 106.256 18.1927 106.831 19.1938 107.981C20.1949 109.121 20.6954 110.804 20.6954 113.031C20.6954 114.352 20.456 115.497 19.9772 116.466C19.5093 117.425 18.9381 118.128 18.2634 118.575L20.6628 129.744H17.1372L15.1459 119.838H14.5256V129.744H11ZM14.5256 116.642C15.1785 116.642 15.6954 116.503 16.0762 116.226C16.4571 115.939 16.7291 115.534 16.8923 115.012C17.0556 114.49 17.1372 113.872 17.1372 113.158C17.1372 112.04 16.9467 111.182 16.5659 110.586C16.1959 109.979 15.5158 109.675 14.5256 109.675V116.642Z" fill="#888888"/>
<path d="M25.2794 129.744V106.256H33.3426V109.803H28.805V116.13H32.0695V119.582H28.805V126.197H33.3426V129.744H25.2794Z" fill="#888888"/>
<path d="M38.5706 129.744V106.256H46.9602V109.803H42.0962V115.971H45.3606V119.518H42.0962V129.744H38.5706Z" fill="#888888"/>
<path d="M51.001 129.744V106.256H54.5266V126.549H59.1948V129.744H51.001Z" fill="#888888"/>
<path d="M63.2401 129.744V106.256H71.3033V109.803H66.7657V116.13H70.0302V119.582H66.7657V126.197H71.3033V129.744H63.2401Z" fill="#888888"/>
<path d="M81.0689 130C80.0678 130 79.2136 129.782 78.5063 129.345C77.8098 128.897 77.2767 128.29 76.9067 127.523C76.5476 126.756 76.368 125.888 76.368 124.919V111.081C76.368 110.123 76.553 109.26 76.923 108.493C77.3039 107.726 77.8479 107.119 78.5552 106.671C79.2625 106.224 80.1004 106 81.0689 106C81.7979 106 82.4508 106.133 83.0275 106.399C83.6043 106.666 84.0939 107.033 84.4965 107.502C84.91 107.96 85.2256 108.498 85.4432 109.116C85.6608 109.723 85.7697 110.378 85.7697 111.081V114.309H82.4726V111.081C82.4726 110.591 82.3692 110.181 82.1624 109.851C81.9557 109.521 81.6129 109.356 81.1341 109.356C80.6989 109.356 80.3833 109.526 80.1875 109.867C79.9916 110.208 79.8937 110.613 79.8937 111.081V124.919C79.8937 125.387 79.997 125.792 80.2038 126.133C80.4214 126.474 80.7315 126.644 81.1341 126.644C81.6238 126.644 81.9666 126.479 82.1624 126.149C82.3692 125.819 82.4726 125.409 82.4726 124.919V121.691H85.7697V124.919C85.7697 125.877 85.5792 126.74 85.1984 127.507C84.8175 128.274 84.2735 128.881 83.5662 129.329C82.8697 129.776 82.0373 130 81.0689 130Z" fill="#888888"/>
<path d="M93.193 129.744V109.803H89.8632V106.256H100.048V109.803H96.7186V129.744H93.193Z" fill="#888888"/>
<path d="M104.293 129.744V106.256H107.819V129.744H104.293Z" fill="#888888"/>
<path d="M117.595 130C116.616 130 115.772 129.776 115.065 129.329C114.369 128.881 113.83 128.274 113.449 127.507C113.079 126.74 112.894 125.877 112.894 124.919V111.081C112.894 110.112 113.079 109.249 113.449 108.493C113.83 107.726 114.369 107.119 115.065 106.671C115.772 106.224 116.616 106 117.595 106C118.574 106 119.412 106.224 120.109 106.671C120.816 107.119 121.355 107.726 121.725 108.493C122.105 109.26 122.296 110.123 122.296 111.081V124.919C122.296 125.877 122.105 126.74 121.725 127.507C121.355 128.274 120.816 128.881 120.109 129.329C119.412 129.776 118.574 130 117.595 130ZM117.595 126.644C118.03 126.644 118.335 126.469 118.509 126.117C118.683 125.755 118.77 125.356 118.77 124.919V111.081C118.77 110.644 118.678 110.25 118.493 109.899C118.308 109.537 118.008 109.356 117.595 109.356C117.192 109.356 116.893 109.537 116.697 109.899C116.512 110.25 116.42 110.644 116.42 111.081V124.919C116.42 125.356 116.512 125.755 116.697 126.117C116.882 126.469 117.181 126.644 117.595 126.644Z" fill="#888888"/>
<path d="M127.369 129.744V106.256H130.666L133.93 118.495L134.224 119.582H134.42V106.256H137.652V129.744H134.681L131.09 117.505L130.796 116.418H130.6V129.744H127.369Z" fill="#888888"/>
<path d="M147.103 130C146.135 130 145.33 129.846 144.688 129.537C144.046 129.217 143.54 128.759 143.17 128.162C142.8 127.566 142.533 126.847 142.37 126.005C142.218 125.164 142.141 124.216 142.141 123.161L145.602 122.842C145.602 123.353 145.618 123.848 145.651 124.328C145.694 124.796 145.765 125.222 145.863 125.606C145.972 125.979 146.124 126.277 146.32 126.501C146.527 126.724 146.788 126.836 147.103 126.836C147.626 126.836 147.996 126.602 148.213 126.133C148.431 125.654 148.54 125.079 148.54 124.407C148.54 123.736 148.36 123.039 148.001 122.314C147.642 121.59 147.212 120.903 146.712 120.253C145.863 119.145 145.117 118.117 144.475 117.169C143.844 116.221 143.349 115.289 142.99 114.373C142.642 113.457 142.468 112.498 142.468 111.497C142.468 110.708 142.571 109.984 142.778 109.324C142.985 108.652 143.284 108.072 143.676 107.582C144.078 107.081 144.562 106.692 145.128 106.415C145.694 106.138 146.342 106 147.071 106C147.974 106 148.736 106.149 149.356 106.447C149.987 106.746 150.493 107.172 150.874 107.726C151.265 108.28 151.548 108.94 151.723 109.707C151.907 110.463 152 111.305 152 112.232L148.54 112.551C148.54 112.157 148.518 111.763 148.474 111.369C148.442 110.964 148.376 110.597 148.279 110.266C148.181 109.936 148.039 109.67 147.854 109.467C147.669 109.265 147.43 109.164 147.136 109.164C146.679 109.164 146.363 109.356 146.189 109.739C146.015 110.112 145.928 110.644 145.928 111.337C145.928 112.232 146.173 113.095 146.663 113.925C147.152 114.756 147.811 115.726 148.638 116.834C149.628 118.144 150.433 119.348 151.053 120.445C151.684 121.542 152 122.756 152 124.088C152 124.929 151.907 125.712 151.723 126.437C151.538 127.15 151.244 127.774 150.841 128.306C150.449 128.839 149.943 129.254 149.323 129.553C148.714 129.851 147.974 130 147.103 130Z" fill="#888888"/>
<path fill-rule="evenodd" clip-rule="evenodd" d="M120 6H40C30.4023 6 23.8076 6.01274 18.854 6.67873C14.0731 7.32151 11.7288 8.47219 10.1005 10.1005C8.47219 11.7288 7.32151 14.0731 6.67873 18.854C6.01274 23.8076 6 30.4023 6 40V50C6 59.5977 6.01274 66.1924 6.67873 71.146C7.32151 75.9269 8.47219 78.2712 10.1005 79.8995C11.7288 81.5278 14.0731 82.6785 18.854 83.3213C23.8076 83.9873 30.4023 84 40 84H120C129.598 84 136.192 83.9873 141.146 83.3213C145.927 82.6785 148.271 81.5278 149.899 79.8995C151.528 78.2712 152.678 75.9269 153.321 71.146C153.987 66.1924 154 59.5977 154 50V40C154 30.4023 153.987 23.8076 153.321 18.854C152.678 14.0731 151.528 11.7288 149.899 10.1005C148.271 8.47219 145.927 7.32151 141.146 6.67873C136.192 6.01274 129.598 6 120 6ZM5.85786 5.85786C0 11.7157 0 21.1438 0 40V50C0 68.8562 0 78.2843 5.85786 84.1421C11.7157 90 21.1438 90 40 90H120C138.856 90 148.284 90 154.142 84.1421C160 78.2843 160 68.8562 160 50V40C160 21.1438 160 11.7157 154.142 5.85786C148.284 0 138.856 0 120 0H40C21.1438 0 11.7157 0 5.85786 5.85786Z" fill="#736F00"/>
<path d="M34.56 69V21.96H41.472C45.6107 21.96 48.6613 23.112 50.624 25.416C52.5867 27.6986 53.568 31.0693 53.568 35.528C53.568 38.1733 53.0987 40.4666 52.16 42.408C51.2427 44.328 50.1227 45.736 48.8 46.632L53.504 69H46.592L42.688 49.16H41.472V69H34.56ZM41.472 42.76C42.752 42.76 43.7653 42.4826 44.512 41.928C45.2587 41.352 45.792 40.5413 46.112 39.496C46.432 38.4506 46.592 37.2133 46.592 35.784C46.592 33.544 46.2187 31.8266 45.472 30.632C44.7467 29.416 43.4133 28.808 41.472 28.808V42.76Z" fill="#736F00"/>
<path d="M62.555 69V21.96H78.363V29.064H69.467V41.736H75.867V48.648H69.467V61.896H78.363V69H62.555Z" fill="#736F00"/>
<path d="M88.6125 69V21.96H104.42V29.064H95.5245V41.736H101.924V48.648H95.5245V61.896H104.42V69H88.6125Z" fill="#736F00"/>
<path d="M114.67 69V21.96H121.582V62.6H130.734V69H114.67Z" fill="#736F00"/>
</svg>
