<svg width="160" height="90" viewBox="0 0 160 90" fill="none" xmlns="http://www.w3.org/2000/svg">
<path fill-rule="evenodd" clip-rule="evenodd" d="M120 6H40C30.4023 6 23.8076 6.01274 18.854 6.67873C14.0731 7.32151 11.7288 8.47219 10.1005 10.1005C8.47219 11.7288 7.32151 14.0731 6.67873 18.854C6.01274 23.8076 6 30.4023 6 40V50C6 59.5977 6.01274 66.1924 6.67873 71.146C7.32151 75.9269 8.47219 78.2712 10.1005 79.8995C11.7288 81.5278 14.0731 82.6785 18.854 83.3213C23.8076 83.9873 30.4023 84 40 84H120C129.598 84 136.192 83.9873 141.146 83.3213C145.927 82.6785 148.271 81.5278 149.899 79.8995C151.528 78.2712 152.678 75.9269 153.321 71.146C153.987 66.1924 154 59.5977 154 50V40C154 30.4023 153.987 23.8076 153.321 18.854C152.678 14.0731 151.528 11.7288 149.899 10.1005C148.271 8.47219 145.927 7.32151 141.146 6.67873C136.192 6.01274 129.598 6 120 6ZM5.85786 5.85786C0 11.7157 0 21.1438 0 40V50C0 68.8562 0 78.2843 5.85786 84.1421C11.7157 90 21.1438 90 40 90H120C138.856 90 148.284 90 154.142 84.1421C160 78.2843 160 68.8562 160 50V40C160 21.1438 160 11.7157 154.142 5.85786C148.284 0 138.856 0 120 0H40C21.1438 0 11.7157 0 5.85786 5.85786Z" fill="#C1BB1B"/>
<path d="M34.56 69V21.96H41.472C45.6107 21.96 48.6613 23.112 50.624 25.416C52.5867 27.6986 53.568 31.0693 53.568 35.528C53.568 38.1733 53.0987 40.4666 52.16 42.408C51.2427 44.328 50.1227 45.736 48.8 46.632L53.504 69H46.592L42.688 49.16H41.472V69H34.56ZM41.472 42.76C42.752 42.76 43.7653 42.4826 44.512 41.928C45.2587 41.352 45.792 40.5413 46.112 39.496C46.432 38.4506 46.592 37.2133 46.592 35.784C46.592 33.544 46.2187 31.8266 45.472 30.632C44.7467 29.416 43.4133 28.808 41.472 28.808V42.76Z" fill="#C1BB1B"/>
<path d="M62.555 69V21.96H78.363V29.064H69.467V41.736H75.867V48.648H69.467V61.896H78.363V69H62.555Z" fill="#C1BB1B"/>
<path d="M88.6125 69V21.96H104.42V29.064H95.5245V41.736H101.924V48.648H95.5245V61.896H104.42V69H88.6125Z" fill="#C1BB1B"/>
<path d="M114.67 69V21.96H121.582V62.6H130.734V69H114.67Z" fill="#C1BB1B"/>
</svg>
