<svg width="300" height="134" viewBox="0 0 300 134" fill="none" xmlns="http://www.w3.org/2000/svg">
<path d="M81 131.744V108.256H84.5256C86.6366 108.256 88.1927 108.831 89.1938 109.981C90.1949 111.121 90.6954 112.804 90.6954 115.031C90.6954 116.352 90.456 117.497 89.9772 118.466C89.5093 119.425 88.9381 120.128 88.2634 120.575L90.6628 131.744H87.1372L85.1459 121.838H84.5256V131.744H81ZM84.5256 118.642C85.1785 118.642 85.6954 118.503 86.0762 118.226C86.4571 117.939 86.7291 117.534 86.8923 117.012C87.0556 116.49 87.1372 115.872 87.1372 115.158C87.1372 114.04 86.9467 113.182 86.5659 112.586C86.1959 111.979 85.5158 111.675 84.5256 111.675V118.642Z" fill="#888888"/>
<path d="M95.2794 131.744V108.256H103.343V111.803H98.805V118.13H102.069V121.582H98.805V128.197H103.343V131.744H95.2794Z" fill="#888888"/>
<path d="M108.571 131.744V108.256H116.96V111.803H112.096V117.971H115.361V121.518H112.096V131.744H108.571Z" fill="#888888"/>
<path d="M121.001 131.744V108.256H124.527V128.549H129.195V131.744H121.001Z" fill="#888888"/>
<path d="M133.24 131.744V108.256H141.303V111.803H136.766V118.13H140.03V121.582H136.766V128.197H141.303V131.744H133.24Z" fill="#888888"/>
<path d="M151.069 132C150.068 132 149.214 131.782 148.506 131.345C147.81 130.897 147.277 130.29 146.907 129.523C146.548 128.756 146.368 127.888 146.368 126.919V113.081C146.368 112.123 146.553 111.26 146.923 110.493C147.304 109.726 147.848 109.119 148.555 108.671C149.263 108.224 150.1 108 151.069 108C151.798 108 152.451 108.133 153.028 108.399C153.604 108.666 154.094 109.033 154.497 109.502C154.91 109.96 155.226 110.498 155.443 111.116C155.661 111.723 155.77 112.378 155.77 113.081V116.309H152.473V113.081C152.473 112.591 152.369 112.181 152.162 111.851C151.956 111.521 151.613 111.356 151.134 111.356C150.699 111.356 150.383 111.526 150.187 111.867C149.992 112.208 149.894 112.613 149.894 113.081V126.919C149.894 127.387 149.997 127.792 150.204 128.133C150.421 128.474 150.732 128.644 151.134 128.644C151.624 128.644 151.967 128.479 152.162 128.149C152.369 127.819 152.473 127.409 152.473 126.919V123.691H155.77V126.919C155.77 127.877 155.579 128.74 155.198 129.507C154.818 130.274 154.273 130.881 153.566 131.329C152.87 131.776 152.037 132 151.069 132Z" fill="#888888"/>
<path d="M163.193 131.744V111.803H159.863V108.256H170.048V111.803H166.719V131.744H163.193Z" fill="#888888"/>
<path d="M174.293 131.744V108.256H177.819V131.744H174.293Z" fill="#888888"/>
<path d="M187.595 132C186.616 132 185.772 131.776 185.065 131.329C184.369 130.881 183.83 130.274 183.449 129.507C183.079 128.74 182.894 127.877 182.894 126.919V113.081C182.894 112.112 183.079 111.249 183.449 110.493C183.83 109.726 184.369 109.119 185.065 108.671C185.772 108.224 186.616 108 187.595 108C188.574 108 189.412 108.224 190.109 108.671C190.816 109.119 191.355 109.726 191.725 110.493C192.105 111.26 192.296 112.123 192.296 113.081V126.919C192.296 127.877 192.105 128.74 191.725 129.507C191.355 130.274 190.816 130.881 190.109 131.329C189.412 131.776 188.574 132 187.595 132ZM187.595 128.644C188.03 128.644 188.335 128.469 188.509 128.117C188.683 127.755 188.77 127.356 188.77 126.919V113.081C188.77 112.644 188.678 112.25 188.493 111.899C188.308 111.537 188.008 111.356 187.595 111.356C187.192 111.356 186.893 111.537 186.697 111.899C186.512 112.25 186.42 112.644 186.42 113.081V126.919C186.42 127.356 186.512 127.755 186.697 128.117C186.882 128.469 187.181 128.644 187.595 128.644Z" fill="#888888"/>
<path d="M197.369 131.744V108.256H200.666L203.93 120.495L204.224 121.582H204.42V108.256H207.652V131.744H204.681L201.09 119.505L200.796 118.418H200.6V131.744H197.369Z" fill="#888888"/>
<path d="M217.103 132C216.135 132 215.33 131.846 214.688 131.537C214.046 131.217 213.54 130.759 213.17 130.162C212.8 129.566 212.533 128.847 212.37 128.005C212.218 127.164 212.141 126.216 212.141 125.161L215.602 124.842C215.602 125.353 215.618 125.848 215.651 126.328C215.694 126.796 215.765 127.222 215.863 127.606C215.972 127.979 216.124 128.277 216.32 128.501C216.527 128.724 216.788 128.836 217.103 128.836C217.626 128.836 217.996 128.602 218.213 128.133C218.431 127.654 218.54 127.079 218.54 126.407C218.54 125.736 218.36 125.039 218.001 124.314C217.642 123.59 217.212 122.903 216.712 122.253C215.863 121.145 215.117 120.117 214.475 119.169C213.844 118.221 213.349 117.289 212.99 116.373C212.642 115.457 212.468 114.498 212.468 113.497C212.468 112.708 212.571 111.984 212.778 111.324C212.985 110.652 213.284 110.072 213.676 109.582C214.078 109.081 214.562 108.692 215.128 108.415C215.694 108.138 216.342 108 217.071 108C217.974 108 218.736 108.149 219.356 108.447C219.987 108.746 220.493 109.172 220.874 109.726C221.265 110.28 221.548 110.94 221.723 111.707C221.907 112.463 222 113.305 222 114.232L218.54 114.551C218.54 114.157 218.518 113.763 218.474 113.369C218.442 112.964 218.376 112.597 218.279 112.266C218.181 111.936 218.039 111.67 217.854 111.467C217.669 111.265 217.43 111.164 217.136 111.164C216.679 111.164 216.363 111.356 216.189 111.739C216.015 112.112 215.928 112.644 215.928 113.337C215.928 114.232 216.173 115.095 216.663 115.925C217.152 116.756 217.811 117.726 218.638 118.834C219.628 120.144 220.433 121.348 221.053 122.445C221.684 123.542 222 124.756 222 126.088C222 126.929 221.907 127.712 221.723 128.437C221.538 129.15 221.244 129.774 220.841 130.306C220.449 130.839 219.943 131.254 219.323 131.553C218.714 131.851 217.974 132 217.103 132Z" fill="#888888"/>
<path fill-rule="evenodd" clip-rule="evenodd" d="M190 8H110C100.402 8 93.8076 8.01274 88.854 8.67873C84.0731 9.32151 81.7288 10.4722 80.1005 12.1005C78.4722 13.7288 77.3215 16.0731 76.6787 20.854C76.0127 25.8076 76 32.4023 76 42V52C76 61.5977 76.0127 68.1924 76.6787 73.146C77.3215 77.9269 78.4722 80.2712 80.1005 81.8995C81.7288 83.5278 84.0731 84.6785 88.854 85.3213C93.8076 85.9873 100.402 86 110 86H190C199.598 86 206.192 85.9873 211.146 85.3213C215.927 84.6785 218.271 83.5278 219.899 81.8995C221.528 80.2712 222.678 77.9269 223.321 73.146C223.987 68.1924 224 61.5977 224 52V42C224 32.4023 223.987 25.8076 223.321 20.854C222.678 16.0731 221.528 13.7288 219.899 12.1005C218.271 10.4722 215.927 9.32151 211.146 8.67873C206.192 8.01274 199.598 8 190 8ZM75.8579 7.85786C70 13.7157 70 23.1438 70 42V52C70 70.8562 70 80.2843 75.8579 86.1421C81.7157 92 91.1438 92 110 92H190C208.856 92 218.284 92 224.142 86.1421C230 80.2843 230 70.8562 230 52V42C230 23.1438 230 13.7157 224.142 7.85786C218.284 2 208.856 2 190 2H110C91.1438 2 81.7157 2 75.8579 7.85786Z" fill="#736F00"/>
<path d="M104.56 71V23.96H111.472C115.611 23.96 118.661 25.112 120.624 27.416C122.587 29.6986 123.568 33.0693 123.568 37.528C123.568 40.1733 123.099 42.4666 122.16 44.408C121.243 46.328 120.123 47.736 118.8 48.632L123.504 71H116.592L112.688 51.16H111.472V71H104.56ZM111.472 44.76C112.752 44.76 113.765 44.4826 114.512 43.928C115.259 43.352 115.792 42.5413 116.112 41.496C116.432 40.4506 116.592 39.2133 116.592 37.784C116.592 35.544 116.219 33.8266 115.472 32.632C114.747 31.416 113.413 30.808 111.472 30.808V44.76Z" fill="#736F00"/>
<path d="M132.555 71V23.96H148.363V31.064H139.467V43.736H145.867V50.648H139.467V63.896H148.363V71H132.555Z" fill="#736F00"/>
<path d="M158.612 71V23.96H174.42V31.064H165.524V43.736H171.924V50.648H165.524V63.896H174.42V71H158.612Z" fill="#736F00"/>
<path d="M184.67 71V23.96H191.582V64.6H200.734V71H184.67Z" fill="#736F00"/>
</svg>
