<svg width="160" height="90" viewBox="0 0 160 90" fill="none" xmlns="http://www.w3.org/2000/svg">
<path fill-rule="evenodd" clip-rule="evenodd" d="M5.85786 5.85786C0 11.7157 0 21.1438 0 40V50C0 68.8562 0 78.2843 5.85786 84.1421C11.7157 90 21.1438 90 40 90H120C138.856 90 148.284 90 154.142 84.1421C160 78.2843 160 68.8562 160 50V40C160 21.1438 160 11.7157 154.142 5.85786C148.284 0 138.856 0 120 0H40C21.1438 0 11.7157 0 5.85786 5.85786ZM34.56 21.96V69H41.472V49.16H42.688L46.592 69H53.504L48.8 46.632C50.1227 45.736 51.2427 44.328 52.16 42.408C53.0987 40.4666 53.568 38.1733 53.568 35.528C53.568 31.0693 52.5867 27.6986 50.624 25.416C48.6613 23.112 45.6107 21.96 41.472 21.96H34.56ZM44.512 41.928C43.7653 42.4826 42.752 42.76 41.472 42.76V28.808C43.4133 28.808 44.7467 29.416 45.472 30.632C46.2187 31.8266 46.592 33.544 46.592 35.784C46.592 37.2133 46.432 38.4506 46.112 39.496C45.792 40.5413 45.2587 41.352 44.512 41.928ZM62.555 21.96V69H78.363V61.896H69.467V48.648H75.867V41.736H69.467V29.064H78.363V21.96H62.555ZM88.6125 69V21.96H104.42V29.064H95.5245V41.736H101.924V48.648H95.5245V61.896H104.42V69H88.6125ZM114.67 21.96V69H130.734V62.6H121.582V21.96H114.67Z" fill="#C1BB1B"/>
</svg>
