<svg width="277" height="49" viewBox="0 0 277 49" fill="none" xmlns="http://www.w3.org/2000/svg">
<path d="M0 47.552V0.512001H6.912C11.0507 0.512001 14.1013 1.664 16.064 3.968C18.0267 6.25066 19.008 9.62133 19.008 14.08C19.008 16.7253 18.5387 19.0187 17.6 20.96C16.6827 22.88 15.5627 24.288 14.24 25.184L18.944 47.552H12.032L8.128 27.712H6.912V47.552H0ZM6.912 21.312C8.192 21.312 9.20533 21.0347 9.952 20.48C10.6987 19.904 11.232 19.0933 11.552 18.048C11.872 17.0027 12.032 15.7653 12.032 14.336C12.032 12.096 11.6587 10.3787 10.912 9.184C10.1867 7.968 8.85333 7.36 6.912 7.36V21.312Z" fill="white"/>
<path d="M27.995 47.552V0.512001H43.803V7.616H34.907V20.288H41.307V27.2H34.907V40.448H43.803V47.552H27.995Z" fill="white"/>
<path d="M54.0525 47.552V0.512001H70.5005V7.616H60.9645V19.968H67.3645V27.072H60.9645V47.552H54.0525Z" fill="white"/>
<path d="M78.4225 47.552V0.512001H85.3345V41.152H94.4865V47.552H78.4225Z" fill="white"/>
<path d="M102.417 47.552V0.512001H118.225V7.616H109.329V20.288H115.729V27.2H109.329V40.448H118.225V47.552H102.417Z" fill="white"/>
<path d="M137.371 48.064C135.408 48.064 133.734 47.6267 132.347 46.752C130.982 45.856 129.936 44.64 129.211 43.104C128.507 41.568 128.155 39.8293 128.155 37.888V10.176C128.155 8.256 128.518 6.528 129.243 4.992C129.99 3.456 131.056 2.24 132.443 1.344C133.83 0.447999 135.472 0 137.371 0C138.8 0 140.08 0.266666 141.211 0.799999C142.342 1.33333 143.302 2.06933 144.091 3.008C144.902 3.92533 145.52 5.00267 145.947 6.24C146.374 7.456 146.587 8.768 146.587 10.176V16.64H140.123V10.176C140.123 9.19467 139.92 8.37333 139.515 7.712C139.11 7.05067 138.438 6.72 137.499 6.72C136.646 6.72 136.027 7.06133 135.643 7.744C135.259 8.42667 135.067 9.23733 135.067 10.176V37.888C135.067 38.8267 135.27 39.6373 135.675 40.32C136.102 41.0027 136.71 41.344 137.499 41.344C138.459 41.344 139.131 41.0133 139.515 40.352C139.92 39.6907 140.123 38.8693 140.123 37.888V31.424H146.587V37.888C146.587 39.808 146.214 41.536 145.467 43.072C144.72 44.608 143.654 45.824 142.267 46.72C140.902 47.616 139.27 48.064 137.371 48.064Z" fill="white"/>
<path d="M161.141 47.552V7.616H154.613V0.512001H174.581V7.616H168.053V47.552H161.141Z" fill="white"/>
<path d="M182.902 47.552V0.512001H189.814V47.552H182.902Z" fill="white"/>
<path d="M208.981 48.064C207.061 48.064 205.408 47.616 204.021 46.72C202.656 45.824 201.6 44.608 200.853 43.072C200.128 41.536 199.765 39.808 199.765 37.888V10.176C199.765 8.23467 200.128 6.50667 200.853 4.992C201.6 3.456 202.656 2.24 204.021 1.344C205.408 0.447999 207.061 0 208.981 0C210.901 0 212.544 0.447999 213.909 1.344C215.296 2.24 216.352 3.456 217.077 4.992C217.824 6.528 218.197 8.256 218.197 10.176V37.888C218.197 39.808 217.824 41.536 217.077 43.072C216.352 44.608 215.296 45.824 213.909 46.72C212.544 47.616 210.901 48.064 208.981 48.064ZM208.981 41.344C209.834 41.344 210.432 40.992 210.773 40.288C211.114 39.5627 211.285 38.7627 211.285 37.888V10.176C211.285 9.30133 211.104 8.512 210.741 7.808C210.378 7.08267 209.792 6.72 208.981 6.72C208.192 6.72 207.605 7.08267 207.221 7.808C206.858 8.512 206.677 9.30133 206.677 10.176V37.888C206.677 38.7627 206.858 39.5627 207.221 40.288C207.584 40.992 208.17 41.344 208.981 41.344Z" fill="white"/>
<path d="M228.143 47.552V0.512001H234.607L241.007 25.024L241.583 27.2H241.967V0.512001H248.303V47.552H242.479L235.439 23.04L234.863 20.864H234.479V47.552H228.143Z" fill="white"/>
<path d="M266.833 48.064C264.934 48.064 263.355 47.7547 262.097 47.136C260.838 46.496 259.846 45.5787 259.121 44.384C258.395 43.1893 257.873 41.7493 257.553 40.064C257.254 38.3787 257.105 36.48 257.105 34.368L263.889 33.728C263.889 34.752 263.921 35.744 263.985 36.704C264.07 37.6427 264.209 38.496 264.401 39.264C264.614 40.0107 264.913 40.608 265.297 41.056C265.702 41.504 266.214 41.728 266.833 41.728C267.857 41.728 268.582 41.2587 269.009 40.32C269.435 39.36 269.648 38.208 269.648 36.864C269.648 35.52 269.296 34.1227 268.592 32.672C267.888 31.2213 267.046 29.8453 266.065 28.544C264.401 26.3253 262.939 24.2667 261.681 22.368C260.443 20.4693 259.473 18.6027 258.769 16.768C258.086 14.9333 257.745 13.0133 257.745 11.008C257.745 9.42933 257.947 7.97867 258.353 6.656C258.758 5.312 259.345 4.14933 260.113 3.168C260.902 2.16533 261.851 1.38667 262.961 0.832001C264.07 0.277334 265.339 0 266.769 0C268.539 0 270.033 0.298667 271.249 0.896C272.486 1.49333 273.478 2.34667 274.225 3.456C274.993 4.56533 275.547 5.888 275.889 7.424C276.251 8.93867 276.433 10.624 276.433 12.48L269.648 13.12C269.648 12.3307 269.606 11.5413 269.521 10.752C269.457 9.94133 269.329 9.20533 269.137 8.544C268.945 7.88267 268.667 7.34933 268.305 6.944C267.942 6.53867 267.473 6.336 266.897 6.336C266.001 6.336 265.382 6.72 265.041 7.488C264.699 8.23467 264.529 9.30133 264.529 10.688C264.529 12.48 265.009 14.208 265.969 15.872C266.929 17.536 268.219 19.4773 269.841 21.696C271.782 24.32 273.361 26.7307 274.577 28.928C275.814 31.1253 276.433 33.5573 276.433 36.224C276.433 37.9093 276.251 39.4773 275.889 40.928C275.526 42.3573 274.95 43.6053 274.161 44.672C273.393 45.7387 272.401 46.5707 271.185 47.168C269.99 47.7653 268.539 48.064 266.833 48.064Z" fill="white"/>
</svg>
