<svg width="355" height="90" viewBox="0 0 355 90" fill="none" xmlns="http://www.w3.org/2000/svg">
<path d="M122.387 60V30H126.605V56.7773H142.798V60H122.387Z" fill="#E7DF1A"/>
<path d="M89.9284 60V30H110.952V33.2227H94.1467V43.3594H109.863V46.582H94.1467V56.7773H111.224V60H89.9284Z" fill="#E7DF1A"/>
<path d="M57.4698 60V30H78.4933V33.2227H61.6882V43.3594H77.4047V46.582H61.6882V56.7773H78.7655V60H57.4698Z" fill="#E7DF1A"/>
<path d="M23 60V30H34.7704C37.4919 30 39.7258 30.4004 41.4721 31.2012C43.2184 31.9922 44.5111 33.0811 45.3502 34.4678C46.1893 35.8545 46.6089 37.4316 46.6089 39.1992C46.6089 40.9668 46.1893 42.5342 45.3502 43.9014C44.5111 45.2686 43.2241 46.3428 41.4891 47.124C39.7542 47.8955 37.5373 48.2812 34.8385 48.2812H25.3133V45H34.7024C36.5621 45 38.0589 44.7656 39.1929 44.2969C40.3381 43.8281 41.1659 43.1641 41.6762 42.3047C42.1978 41.4355 42.4586 40.4004 42.4586 39.1992C42.4586 37.998 42.1978 36.9482 41.6762 36.0498C41.1546 35.1514 40.3211 34.458 39.1758 33.9697C38.0306 33.4717 36.5167 33.2227 34.6344 33.2227H27.2183V60H23ZM39.397 46.5234L47.9697 60H43.071L34.6344 46.5234H39.397Z" fill="#E7DF1A"/>
<path d="M349.01 60.2991C347.915 60.2991 347.02 60.072 346.323 59.6179C345.627 59.15 345.079 58.5101 344.681 57.6982C344.298 56.8725 344.02 55.9298 343.85 54.8702C343.694 53.8106 343.615 52.6822 343.615 51.4849L347.581 51.0308C347.581 51.4712 347.595 51.9872 347.624 52.5789C347.666 53.1569 347.73 53.728 347.816 54.2922C347.915 54.8427 348.057 55.3037 348.242 55.6753C348.441 56.0331 348.697 56.2119 349.01 56.2119C349.507 56.2119 349.841 55.9367 350.012 55.3863C350.196 54.8358 350.289 54.0996 350.289 53.1776C350.289 52.1455 350.09 51.0858 349.692 49.9987C349.294 48.8978 348.704 47.7074 347.922 46.4276C347.169 45.2992 346.494 44.1707 345.897 43.0423C345.3 41.9001 344.824 40.7717 344.468 39.657C344.127 38.5423 343.956 37.4552 343.956 36.3956C343.956 35.5011 344.049 34.6341 344.234 33.7947C344.433 32.9552 344.731 32.1983 345.129 31.524C345.527 30.8497 346.039 30.313 346.664 29.9139C347.304 29.5011 348.071 29.2947 348.967 29.2947C350.076 29.2947 350.971 29.5149 351.653 29.9552C352.35 30.3818 352.89 30.9736 353.274 31.7304C353.658 32.4736 353.921 33.3268 354.063 34.2901C354.205 35.2534 354.276 36.2648 354.276 37.3244L350.289 37.7786C350.289 37.3933 350.275 36.9529 350.246 36.4575C350.218 35.9483 350.161 35.4667 350.076 35.0125C350.005 34.5446 349.884 34.1593 349.713 33.8566C349.557 33.5401 349.337 33.3818 349.052 33.3818C348.64 33.3818 348.356 33.6433 348.199 34.1662C348.057 34.6891 347.986 35.3979 347.986 36.2923C347.986 37.3657 348.228 38.4598 348.711 39.5744C349.194 40.6891 349.884 41.9689 350.779 43.4139C351.859 45.1616 352.719 46.751 353.359 48.1822C353.999 49.6134 354.319 51.1409 354.319 52.7647C354.319 53.6592 354.233 54.5537 354.063 55.4482C353.892 56.3427 353.601 57.1546 353.188 57.884C352.791 58.6133 352.25 59.1982 351.568 59.6385C350.9 60.0789 350.047 60.2991 349.01 60.2991Z" fill="white"/>
<path d="M325.188 59.969V29.6251H328.92L332.054 44.0333L332.331 45.664H332.502V29.6251H336.233V59.969H332.821L329.389 45.6227L329.09 43.7237H328.92V59.969H325.188Z" fill="white"/>
<path d="M312.625 60.2991C311.459 60.2991 310.493 60.0101 309.725 59.4321C308.972 58.8404 308.403 58.0629 308.019 57.0996C307.636 56.1363 307.444 55.0835 307.444 53.9413V35.6524C307.444 34.524 307.636 33.485 308.019 32.5355C308.403 31.5722 308.972 30.7947 309.725 30.2029C310.493 29.5974 311.459 29.2947 312.625 29.2947C313.833 29.2947 314.814 29.5974 315.567 30.2029C316.335 30.7947 316.896 31.5722 317.251 32.5355C317.621 33.485 317.806 34.524 317.806 35.6524V53.9413C317.806 55.0835 317.614 56.1363 317.23 57.0996C316.86 58.0629 316.292 58.8404 315.524 59.4321C314.771 60.0101 313.804 60.2991 312.625 60.2991ZM312.667 55.9642C313.108 55.9642 313.399 55.7578 313.541 55.345C313.684 54.9321 313.755 54.4643 313.755 53.9413V35.6524C313.755 35.1295 313.677 34.6616 313.52 34.2488C313.378 33.8359 313.094 33.6295 312.667 33.6295C312.241 33.6295 311.942 33.8359 311.772 34.2488C311.615 34.6479 311.537 35.1157 311.537 35.6524V53.9413C311.537 54.5055 311.615 54.9872 311.772 55.3863C311.942 55.7716 312.241 55.9642 312.667 55.9642Z" fill="white"/>
<path d="M296.01 59.969V29.6251H300.061V59.969H296.01Z" fill="white"/>
<path d="M281.123 59.969V34.2077H277.69V29.6251H288.628V34.2077H285.174V59.969H281.123Z" fill="white"/>
<path d="M265.148 60.2991C263.954 60.2991 262.98 59.9963 262.227 59.3908C261.473 58.7716 260.919 57.9803 260.564 57.017C260.208 56.0399 260.031 55.0147 260.031 53.9413V35.6524C260.031 34.5928 260.215 33.5813 260.585 32.6181C260.954 31.641 261.516 30.8428 262.269 30.2236C263.037 29.6043 263.996 29.2947 265.148 29.2947C266.057 29.2947 266.832 29.4873 267.472 29.8727C268.125 30.258 268.658 30.7671 269.071 31.4002C269.497 32.0332 269.81 32.7213 270.009 33.4644C270.208 34.2075 270.307 34.9368 270.307 35.6524V40.0286H266.427V35.5492C266.427 35.0813 266.342 34.6479 266.171 34.2488C266.015 33.8359 265.702 33.6295 265.233 33.6295C264.806 33.6295 264.515 33.8359 264.359 34.2488C264.202 34.6616 264.124 35.0951 264.124 35.5492V54.0445C264.124 54.4987 264.209 54.9321 264.38 55.345C264.551 55.7578 264.835 55.9642 265.233 55.9642C265.716 55.9642 266.036 55.7647 266.192 55.3656C266.349 54.9528 266.427 54.5124 266.427 54.0445V49.5652H270.307V53.9413C270.307 55.0973 270.115 56.1569 269.732 57.1202C269.362 58.0697 268.801 58.8404 268.047 59.4321C267.294 60.0101 266.327 60.2991 265.148 60.2991Z" fill="white"/>
<path d="M243.906 59.969V29.6251H252.648V34.2077H247.957V42.3819H251.454V46.8406H247.957V55.3864H252.648V59.969H243.906Z" fill="white"/>
<path d="M227.633 59.969V29.6251H231.684V55.8406H236.524V59.969H227.633Z" fill="white"/>
<path d="M211.167 59.969V29.6251H220.25V34.2077H215.218V42.1755H218.608V46.758H215.218V59.969H211.167Z" fill="white"/>
<path d="M195.043 59.969V29.6251H203.785V34.2077H199.094V42.3819H202.591V46.8406H199.094V55.3864H203.785V59.969H195.043Z" fill="white"/>
<path d="M177 59.969V29.6251H180.966C183.155 29.6251 184.768 30.3682 185.806 31.8545C186.857 33.3269 187.383 35.5012 187.383 38.3774C187.383 39.9462 187.163 41.3567 186.722 42.609C186.296 43.8613 185.727 44.7902 185.017 45.3957L187.661 59.969H183.546L181.499 46.9645H181.051V59.969H177ZM181.051 43.1457C181.662 43.1457 182.138 42.9393 182.48 42.5264C182.821 42.1136 183.055 41.5562 183.183 40.8544C183.325 40.1526 183.396 39.3819 183.396 38.5425C183.396 37.2489 183.233 36.1755 182.906 35.3223C182.593 34.4691 181.975 34.0425 181.051 34.0425V43.1457Z" fill="white"/>
<path fill-rule="evenodd" clip-rule="evenodd" d="M120 4H40C30.4588 4 23.7053 4.00849 18.5876 4.69656C13.5848 5.36916 10.7481 6.62444 8.68629 8.68629C6.62443 10.7481 5.36916 13.5848 4.69656 18.5876C4.00849 23.7053 4 30.4588 4 40V50C4 59.5412 4.00849 66.2947 4.69656 71.4124C5.36916 76.4152 6.62444 79.2519 8.68629 81.3137C10.7481 83.3756 13.5848 84.6308 18.5876 85.3034C23.7053 85.9915 30.4588 86 40 86H120C129.541 86 136.295 85.9915 141.412 85.3034C146.415 84.6308 149.252 83.3756 151.314 81.3137C153.376 79.2519 154.631 76.4152 155.303 71.4124C155.992 66.2947 156 59.5412 156 50V40C156 30.4588 155.992 23.7053 155.303 18.5876C154.631 13.5848 153.376 10.7481 151.314 8.68629C149.252 6.62444 146.415 5.36916 141.412 4.69656C136.295 4.00849 129.541 4 120 4ZM5.85786 5.85786C0 11.7157 0 21.1438 0 40V50C0 68.8562 0 78.2843 5.85786 84.1421C11.7157 90 21.1438 90 40 90H120C138.856 90 148.284 90 154.142 84.1421C160 78.2843 160 68.8562 160 50V40C160 21.1438 160 11.7157 154.142 5.85786C148.284 0 138.856 0 120 0H40C21.1438 0 11.7157 0 5.85786 5.85786Z" fill="#E7DF1A"/>
</svg>
